<svg width="1530" height="147" viewBox="0 0 1530 147" fill="none" xmlns="http://www.w3.org/2000/svg">
<g filter="url(#filter0_d_103_2463)">
<g clip-path="url(#clip0_103_2463)">
<rect x="15" y="8" width="1500" height="117" rx="10" fill="#191A19"/>
<g filter="url(#filter1_f_103_2463)">
<circle cx="226.5" cy="118.5" r="211.5" fill="#FF4848"/>
</g>
<g filter="url(#filter2_f_103_2463)">
<circle cx="1129.5" cy="-41.5" r="211.5" fill="#5ED8FF"/>
</g>
<path d="M55.2273 58L50.3409 51.4801H48.7926V58H46.598V43.4545H48.7926V49.598H49.5099L55.0071 43.4545H57.6847L51.8679 49.9673L57.9048 58H55.2273ZM62.9421 58.2415C62.2508 58.2415 61.6258 58.1136 61.0671 57.858C60.5084 57.5975 60.0657 57.2211 59.739 56.7287C59.417 56.2363 59.256 55.6326 59.256 54.9176C59.256 54.3021 59.3744 53.7955 59.6112 53.3977C59.8479 53 60.1675 52.6851 60.57 52.4531C60.9724 52.2211 61.4222 52.0459 61.9194 51.9276C62.4165 51.8092 62.9232 51.7192 63.4393 51.6577C64.0927 51.5819 64.623 51.5204 65.0302 51.473C65.4374 51.4209 65.7333 51.3381 65.918 51.2244C66.1026 51.1108 66.195 50.9261 66.195 50.6705V50.6207C66.195 50.0005 66.0198 49.5199 65.6694 49.179C65.3237 48.8381 64.8076 48.6676 64.1211 48.6676C63.4061 48.6676 62.8427 48.8262 62.4308 49.1435C62.0236 49.456 61.7418 49.804 61.5856 50.1875L59.5898 49.733C59.8266 49.0701 60.1722 48.535 60.6268 48.1278C61.0861 47.7159 61.614 47.4176 62.2106 47.233C62.8072 47.0436 63.4345 46.9489 64.0927 46.9489C64.5283 46.9489 64.9899 47.0009 65.4776 47.1051C65.9701 47.2045 66.4293 47.3892 66.8555 47.6591C67.2863 47.929 67.6391 48.3149 67.9137 48.8168C68.1883 49.3139 68.3256 49.9602 68.3256 50.7557V58H66.2518V56.5085H66.1665C66.0292 56.7831 65.8233 57.053 65.5487 57.3182C65.274 57.5833 64.9213 57.8035 64.4904 57.9787C64.0595 58.1539 63.5434 58.2415 62.9421 58.2415ZM63.4038 56.5369C63.9909 56.5369 64.4928 56.4209 64.9094 56.1889C65.3308 55.9569 65.6505 55.6539 65.8683 55.2798C66.0908 54.901 66.2021 54.4962 66.2021 54.0653V52.6591C66.1263 52.7348 65.9795 52.8059 65.7617 52.8722C65.5487 52.9337 65.3048 52.9882 65.0302 53.0355C64.7556 53.0781 64.488 53.1184 64.2276 53.1562C63.9672 53.1894 63.7494 53.2178 63.5742 53.2415C63.1623 53.2936 62.7859 53.3812 62.445 53.5043C62.1088 53.6274 61.8389 53.8049 61.6353 54.0369C61.4364 54.2642 61.337 54.5672 61.337 54.946C61.337 55.4716 61.5311 55.8693 61.9194 56.1392C62.3076 56.4044 62.8024 56.5369 63.4038 56.5369ZM70.4581 58L74.6839 52.4176L70.5078 47.0909H72.9794L76.353 51.6222H77.1129V47.0909H79.2365V51.6222H79.9751L83.3487 47.0909H85.8203L81.6655 52.4176L85.87 58H83.3487L79.9467 53.4545H79.2365V58H77.1129V53.4545H76.4027L72.9794 58H70.4581ZM86.9638 61.1463V56.1605H87.8516C88.0788 55.9522 88.2706 55.7036 88.4268 55.4148C88.5878 55.1259 88.7228 54.7827 88.8317 54.3849C88.9453 53.9872 89.04 53.5232 89.1158 52.9929C89.1915 52.4579 89.2578 51.8471 89.3146 51.1605L89.6555 47.0909H97.0703V56.1605H98.7464V61.1463H96.6726V58H89.0661V61.1463H86.9638ZM90.1243 56.1605H94.9964V48.9091H91.5589L91.3317 51.1605C91.2228 52.3063 91.0855 53.3007 90.9197 54.1435C90.754 54.9815 90.4889 55.6539 90.1243 56.1605ZM102.42 50.8409H105.588C106.923 50.8409 107.95 51.1723 108.67 51.8352C109.39 52.4981 109.75 53.3527 109.75 54.3991C109.75 55.081 109.589 55.6941 109.267 56.2386C108.945 56.7831 108.474 57.214 107.853 57.5312C107.233 57.8438 106.478 58 105.588 58H100.822V47.0909H102.903V56.1676H105.588C106.199 56.1676 106.7 56.009 107.093 55.6918C107.486 55.3698 107.683 54.9602 107.683 54.4631C107.683 53.9375 107.486 53.509 107.093 53.1776C106.7 52.8414 106.199 52.6733 105.588 52.6733H102.42V50.8409ZM111.298 58V47.0909H113.422V58H111.298ZM118.352 55.0241L123.161 47.0909H125.447V58H123.366V50.0597L118.58 58H116.271V47.0909H118.352V55.0241ZM122.251 43.3977H123.999C123.999 44.1979 123.714 44.849 123.146 45.3509C122.583 45.848 121.821 46.0966 120.859 46.0966C119.903 46.0966 119.143 45.848 118.58 45.3509C118.016 44.849 117.734 44.1979 117.734 43.3977H119.474C119.474 43.7528 119.579 44.0677 119.787 44.3423C119.995 44.6122 120.353 44.7472 120.859 44.7472C121.357 44.7472 121.712 44.6122 121.925 44.3423C122.143 44.0724 122.251 43.7576 122.251 43.3977ZM139.086 43.4545V58H136.884V45.6562H136.799L133.319 47.929V45.8267L136.948 43.4545H139.086ZM148.084 58.2415C146.962 58.2367 146.003 57.9408 145.208 57.3537C144.412 56.7666 143.804 55.9119 143.382 54.7898C142.961 53.6676 142.75 52.3158 142.75 50.7344C142.75 49.1577 142.961 47.8106 143.382 46.6932C143.809 45.5758 144.419 44.7235 145.215 44.1364C146.015 43.5492 146.971 43.2557 148.084 43.2557C149.197 43.2557 150.151 43.5516 150.946 44.1435C151.742 44.7306 152.35 45.5829 152.772 46.7003C153.198 47.813 153.411 49.1577 153.411 50.7344C153.411 52.3205 153.2 53.6747 152.779 54.7969C152.357 55.9143 151.749 56.7689 150.953 57.3608C150.158 57.9479 149.202 58.2415 148.084 58.2415ZM148.084 56.3452C149.069 56.3452 149.838 55.8646 150.392 54.9034C150.951 53.9422 151.23 52.5526 151.23 50.7344C151.23 49.527 151.103 48.5066 150.847 47.6733C150.596 46.8352 150.234 46.2008 149.76 45.7699C149.292 45.3343 148.733 45.1165 148.084 45.1165C147.104 45.1165 146.335 45.5994 145.776 46.5653C145.217 47.5312 144.935 48.9209 144.931 50.7344C144.931 51.9465 145.056 52.9716 145.307 53.8097C145.563 54.643 145.925 55.2751 146.394 55.706C146.863 56.1321 147.426 56.3452 148.084 56.3452ZM160.605 55.1165H162.779C162.807 55.5616 163.008 55.9048 163.382 56.1463C163.761 56.3878 164.251 56.5085 164.853 56.5085C165.463 56.5085 165.984 56.3783 166.415 56.1179C166.846 55.8527 167.061 55.4432 167.061 54.8892C167.061 54.5578 166.979 54.2689 166.813 54.0227C166.652 53.7718 166.422 53.5777 166.124 53.4403C165.83 53.303 165.482 53.2344 165.08 53.2344H163.304V51.5653H165.08C165.681 51.5653 166.131 51.428 166.429 51.1534C166.728 50.8788 166.877 50.5355 166.877 50.1236C166.877 49.6785 166.716 49.321 166.394 49.0511C166.077 48.7765 165.634 48.6392 165.066 48.6392C164.488 48.6392 164.007 48.7694 163.624 49.0298C163.24 49.2855 163.039 49.617 163.02 50.0241H160.875C160.89 49.4134 161.074 48.8783 161.429 48.419C161.789 47.955 162.272 47.5952 162.878 47.3395C163.489 47.0791 164.183 46.9489 164.959 46.9489C165.769 46.9489 166.47 47.0791 167.061 47.3395C167.653 47.5999 168.11 47.9598 168.432 48.419C168.759 48.8783 168.922 49.4062 168.922 50.0028C168.922 50.6042 168.742 51.0966 168.382 51.4801C168.027 51.8589 167.563 52.1312 166.99 52.2969V52.4105C167.412 52.4389 167.786 52.5668 168.113 52.794C168.439 53.0213 168.695 53.322 168.88 53.696C169.064 54.0701 169.157 54.4938 169.157 54.9673C169.157 55.6349 168.972 56.2126 168.603 56.7003C168.238 57.188 167.731 57.5644 167.083 57.8295C166.439 58.09 165.703 58.2202 164.874 58.2202C164.069 58.2202 163.347 58.0947 162.708 57.8438C162.073 57.5881 161.569 57.2282 161.195 56.7642C160.826 56.3002 160.629 55.7509 160.605 55.1165ZM174.524 58.2415C173.833 58.2415 173.208 58.1136 172.649 57.858C172.09 57.5975 171.648 57.2211 171.321 56.7287C170.999 56.2363 170.838 55.6326 170.838 54.9176C170.838 54.3021 170.956 53.7955 171.193 53.3977C171.43 53 171.75 52.6851 172.152 52.4531C172.554 52.2211 173.004 52.0459 173.501 51.9276C173.999 51.8092 174.505 51.7192 175.021 51.6577C175.675 51.5819 176.205 51.5204 176.612 51.473C177.019 51.4209 177.315 51.3381 177.5 51.2244C177.685 51.1108 177.777 50.9261 177.777 50.6705V50.6207C177.777 50.0005 177.602 49.5199 177.251 49.179C176.906 48.8381 176.39 48.6676 175.703 48.6676C174.988 48.6676 174.425 48.8262 174.013 49.1435C173.606 49.456 173.324 49.804 173.168 50.1875L171.172 49.733C171.409 49.0701 171.754 48.535 172.209 48.1278C172.668 47.7159 173.196 47.4176 173.793 47.233C174.389 47.0436 175.017 46.9489 175.675 46.9489C176.11 46.9489 176.572 47.0009 177.06 47.1051C177.552 47.2045 178.011 47.3892 178.438 47.6591C178.868 47.929 179.221 48.3149 179.496 48.8168C179.77 49.3139 179.908 49.9602 179.908 50.7557V58H177.834V56.5085H177.749C177.611 56.7831 177.405 57.053 177.131 57.3182C176.856 57.5833 176.503 57.8035 176.072 57.9787C175.642 58.1539 175.125 58.2415 174.524 58.2415ZM174.986 56.5369C175.573 56.5369 176.075 56.4209 176.491 56.1889C176.913 55.9569 177.232 55.6539 177.45 55.2798C177.673 54.901 177.784 54.4962 177.784 54.0653V52.6591C177.708 52.7348 177.562 52.8059 177.344 52.8722C177.131 52.9337 176.887 52.9882 176.612 53.0355C176.338 53.0781 176.07 53.1184 175.81 53.1562C175.549 53.1894 175.331 53.2178 175.156 53.2415C174.744 53.2936 174.368 53.3812 174.027 53.5043C173.691 53.6274 173.421 53.8049 173.217 54.0369C173.018 54.2642 172.919 54.5672 172.919 54.946C172.919 55.4716 173.113 55.8693 173.501 56.1392C173.89 56.4044 174.384 56.5369 174.986 56.5369ZM182.736 58V47.0909H184.86V51.6648H185.882L189.483 47.0909H192.111L187.885 52.3963L192.161 58H189.526L186.238 53.6392H184.86V58H182.736ZM196.985 58.2415C196.294 58.2415 195.669 58.1136 195.11 57.858C194.551 57.5975 194.109 57.2211 193.782 56.7287C193.46 56.2363 193.299 55.6326 193.299 54.9176C193.299 54.3021 193.417 53.7955 193.654 53.3977C193.891 53 194.21 52.6851 194.613 52.4531C195.015 52.2211 195.465 52.0459 195.962 51.9276C196.46 51.8092 196.966 51.7192 197.482 51.6577C198.136 51.5819 198.666 51.5204 199.073 51.473C199.48 51.4209 199.776 51.3381 199.961 51.2244C200.146 51.1108 200.238 50.9261 200.238 50.6705V50.6207C200.238 50.0005 200.063 49.5199 199.712 49.179C199.367 48.8381 198.851 48.6676 198.164 48.6676C197.449 48.6676 196.886 48.8262 196.474 49.1435C196.067 49.456 195.785 49.804 195.629 50.1875L193.633 49.733C193.87 49.0701 194.215 48.535 194.67 48.1278C195.129 47.7159 195.657 47.4176 196.254 47.233C196.85 47.0436 197.478 46.9489 198.136 46.9489C198.571 46.9489 199.033 47.0009 199.521 47.1051C200.013 47.2045 200.472 47.3892 200.898 47.6591C201.329 47.929 201.682 48.3149 201.957 48.8168C202.231 49.3139 202.369 49.9602 202.369 50.7557V58H200.295V56.5085H200.21C200.072 56.7831 199.866 57.053 199.592 57.3182C199.317 57.5833 198.964 57.8035 198.533 57.9787C198.103 58.1539 197.586 58.2415 196.985 58.2415ZM197.447 56.5369C198.034 56.5369 198.536 56.4209 198.952 56.1889C199.374 55.9569 199.693 55.6539 199.911 55.2798C200.134 54.901 200.245 54.4962 200.245 54.0653V52.6591C200.169 52.7348 200.022 52.8059 199.805 52.8722C199.592 52.9337 199.348 52.9882 199.073 53.0355C198.799 53.0781 198.531 53.1184 198.271 53.1562C198.01 53.1894 197.792 53.2178 197.617 53.2415C197.205 53.2936 196.829 53.3812 196.488 53.5043C196.152 53.6274 195.882 53.8049 195.678 54.0369C195.479 54.2642 195.38 54.5672 195.38 54.946C195.38 55.4716 195.574 55.8693 195.962 56.1392C196.351 56.4044 196.845 56.5369 197.447 56.5369ZM204.551 55.1165H206.724C206.752 55.5616 206.954 55.9048 207.328 56.1463C207.707 56.3878 208.197 56.5085 208.798 56.5085C209.409 56.5085 209.93 56.3783 210.36 56.1179C210.791 55.8527 211.007 55.4432 211.007 54.8892C211.007 54.5578 210.924 54.2689 210.758 54.0227C210.597 53.7718 210.368 53.5777 210.069 53.4403C209.776 53.303 209.428 53.2344 209.025 53.2344H207.25V51.5653H209.025C209.627 51.5653 210.076 51.428 210.375 51.1534C210.673 50.8788 210.822 50.5355 210.822 50.1236C210.822 49.6785 210.661 49.321 210.339 49.0511C210.022 48.7765 209.579 48.6392 209.011 48.6392C208.433 48.6392 207.953 48.7694 207.569 49.0298C207.186 49.2855 206.984 49.617 206.966 50.0241H204.821C204.835 49.4134 205.02 48.8783 205.375 48.419C205.734 47.955 206.217 47.5952 206.824 47.3395C207.434 47.0791 208.128 46.9489 208.904 46.9489C209.714 46.9489 210.415 47.0791 211.007 47.3395C211.599 47.5999 212.056 47.9598 212.377 48.419C212.704 48.8783 212.868 49.4062 212.868 50.0028C212.868 50.6042 212.688 51.0966 212.328 51.4801C211.973 51.8589 211.509 52.1312 210.936 52.2969V52.4105C211.357 52.4389 211.731 52.5668 212.058 52.794C212.385 53.0213 212.64 53.322 212.825 53.696C213.01 54.0701 213.102 54.4938 213.102 54.9673C213.102 55.6349 212.917 56.2126 212.548 56.7003C212.183 57.188 211.677 57.5644 211.028 57.8295C210.384 58.09 209.648 58.2202 208.819 58.2202C208.014 58.2202 207.292 58.0947 206.653 57.8438C206.019 57.5881 205.514 57.2282 205.14 56.7642C204.771 56.3002 204.574 55.7509 204.551 55.1165ZM227.981 51.6293V53.4688H222.072V51.6293H227.981ZM222.669 47.0909V58H220.588V47.0909H222.669ZM229.466 47.0909V58H227.392V47.0909H229.466ZM235.481 58.2415C234.79 58.2415 234.165 58.1136 233.606 57.858C233.047 57.5975 232.605 57.2211 232.278 56.7287C231.956 56.2363 231.795 55.6326 231.795 54.9176C231.795 54.3021 231.913 53.7955 232.15 53.3977C232.387 53 232.707 52.6851 233.109 52.4531C233.511 52.2211 233.961 52.0459 234.458 51.9276C234.956 51.8092 235.462 51.7192 235.978 51.6577C236.632 51.5819 237.162 51.5204 237.569 51.473C237.976 51.4209 238.272 51.3381 238.457 51.2244C238.642 51.1108 238.734 50.9261 238.734 50.6705V50.6207C238.734 50.0005 238.559 49.5199 238.208 49.179C237.863 48.8381 237.347 48.6676 236.66 48.6676C235.945 48.6676 235.382 48.8262 234.97 49.1435C234.563 49.456 234.281 49.804 234.125 50.1875L232.129 49.733C232.366 49.0701 232.711 48.535 233.166 48.1278C233.625 47.7159 234.153 47.4176 234.75 47.233C235.346 47.0436 235.974 46.9489 236.632 46.9489C237.067 46.9489 237.529 47.0009 238.017 47.1051C238.509 47.2045 238.968 47.3892 239.395 47.6591C239.825 47.929 240.178 48.3149 240.453 48.8168C240.727 49.3139 240.865 49.9602 240.865 50.7557V58H238.791V56.5085H238.706C238.568 56.7831 238.362 57.053 238.088 57.3182C237.813 57.5833 237.46 57.8035 237.029 57.9787C236.599 58.1539 236.083 58.2415 235.481 58.2415ZM235.943 56.5369C236.53 56.5369 237.032 56.4209 237.449 56.1889C237.87 55.9569 238.19 55.6539 238.407 55.2798C238.63 54.901 238.741 54.4962 238.741 54.0653V52.6591C238.665 52.7348 238.519 52.8059 238.301 52.8722C238.088 52.9337 237.844 52.9882 237.569 53.0355C237.295 53.0781 237.027 53.1184 236.767 53.1562C236.506 53.1894 236.288 53.2178 236.113 53.2415C235.701 53.2936 235.325 53.3812 234.984 53.5043C234.648 53.6274 234.378 53.8049 234.174 54.0369C233.975 54.2642 233.876 54.5672 233.876 54.946C233.876 55.4716 234.07 55.8693 234.458 56.1392C234.847 56.4044 235.342 56.5369 235.943 56.5369ZM253.581 58.2202C252.525 58.2202 251.616 57.9811 250.854 57.5028C250.096 57.0199 249.514 56.3546 249.107 55.5071C248.7 54.6596 248.496 53.6889 248.496 52.5952C248.496 51.4872 248.704 50.5095 249.121 49.6619C249.538 48.8097 250.125 48.1444 250.882 47.6662C251.64 47.188 252.533 46.9489 253.56 46.9489C254.389 46.9489 255.127 47.1027 255.776 47.4105C256.425 47.7135 256.948 48.1397 257.346 48.6889C257.748 49.2382 257.987 49.8797 258.063 50.6136H255.996C255.882 50.1023 255.622 49.6619 255.215 49.2926C254.812 48.9233 254.273 48.7386 253.596 48.7386C253.004 48.7386 252.485 48.8949 252.04 49.2074C251.6 49.5152 251.257 49.9555 251.01 50.5284C250.764 51.0966 250.641 51.7689 250.641 52.5455C250.641 53.3409 250.762 54.0275 251.003 54.6051C251.245 55.1828 251.586 55.6302 252.026 55.9474C252.471 56.2647 252.994 56.4233 253.596 56.4233C253.998 56.4233 254.363 56.3499 254.689 56.2031C255.021 56.0516 255.298 55.8362 255.52 55.5568C255.748 55.2775 255.906 54.9413 255.996 54.5483H258.063C257.987 55.2538 257.757 55.8835 257.374 56.4375C256.99 56.9915 256.477 57.4271 255.833 57.7443C255.194 58.0616 254.443 58.2202 253.581 58.2202ZM263.509 58.2415C262.817 58.2415 262.192 58.1136 261.634 57.858C261.075 57.5975 260.632 57.2211 260.305 56.7287C259.983 56.2363 259.822 55.6326 259.822 54.9176C259.822 54.3021 259.941 53.7955 260.178 53.3977C260.414 53 260.734 52.6851 261.136 52.4531C261.539 52.2211 261.989 52.0459 262.486 51.9276C262.983 51.8092 263.49 51.7192 264.006 51.6577C264.659 51.5819 265.189 51.5204 265.597 51.473C266.004 51.4209 266.3 51.3381 266.484 51.2244C266.669 51.1108 266.761 50.9261 266.761 50.6705V50.6207C266.761 50.0005 266.586 49.5199 266.236 49.179C265.89 48.8381 265.374 48.6676 264.688 48.6676C263.973 48.6676 263.409 48.8262 262.997 49.1435C262.59 49.456 262.308 49.804 262.152 50.1875L260.156 49.733C260.393 49.0701 260.739 48.535 261.193 48.1278C261.652 47.7159 262.18 47.4176 262.777 47.233C263.374 47.0436 264.001 46.9489 264.659 46.9489C265.095 46.9489 265.556 47.0009 266.044 47.1051C266.536 47.2045 266.996 47.3892 267.422 47.6591C267.853 47.929 268.205 48.3149 268.48 48.8168C268.755 49.3139 268.892 49.9602 268.892 50.7557V58H266.818V56.5085H266.733C266.596 56.7831 266.39 57.053 266.115 57.3182C265.84 57.5833 265.488 57.8035 265.057 57.9787C264.626 58.1539 264.11 58.2415 263.509 58.2415ZM263.97 56.5369C264.557 56.5369 265.059 56.4209 265.476 56.1889C265.897 55.9569 266.217 55.6539 266.435 55.2798C266.657 54.901 266.768 54.4962 266.768 54.0653V52.6591C266.693 52.7348 266.546 52.8059 266.328 52.8722C266.115 52.9337 265.871 52.9882 265.597 53.0355C265.322 53.0781 265.054 53.1184 264.794 53.1562C264.534 53.1894 264.316 53.2178 264.141 53.2415C263.729 53.2936 263.352 53.3812 263.011 53.5043C262.675 53.6274 262.405 53.8049 262.202 54.0369C262.003 54.2642 261.903 54.5672 261.903 54.946C261.903 55.4716 262.098 55.8693 262.486 56.1392C262.874 56.4044 263.369 56.5369 263.97 56.5369ZM273.801 55.0241L278.61 47.0909H280.897V58H278.816V50.0597L274.029 58H271.721V47.0909H273.801V55.0241ZM277.701 43.3977H279.448C279.448 44.1979 279.164 44.849 278.596 45.3509C278.032 45.848 277.27 46.0966 276.309 46.0966C275.352 46.0966 274.592 45.848 274.029 45.3509C273.465 44.849 273.184 44.1979 273.184 43.3977H274.924C274.924 43.7528 275.028 44.0677 275.236 44.3423C275.444 44.6122 275.802 44.7472 276.309 44.7472C276.806 44.7472 277.161 44.6122 277.374 44.3423C277.592 44.0724 277.701 43.7576 277.701 43.3977ZM282.399 48.9233V47.0909H291.603V48.9233H288.045V58H285.971V48.9233H282.399ZM298.043 58.2202C296.969 58.2202 296.043 57.9905 295.266 57.5312C294.495 57.0672 293.898 56.4162 293.477 55.5781C293.06 54.7353 292.852 53.7481 292.852 52.6165C292.852 51.4991 293.06 50.5142 293.477 49.6619C293.898 48.8097 294.485 48.1444 295.238 47.6662C295.996 47.188 296.881 46.9489 297.894 46.9489C298.51 46.9489 299.106 47.0507 299.684 47.2543C300.262 47.4579 300.78 47.7775 301.239 48.2131C301.699 48.6487 302.061 49.2145 302.326 49.9105C302.591 50.6018 302.724 51.4422 302.724 52.4318V53.1847H294.052V51.5938H300.643C300.643 51.035 300.529 50.5402 300.302 50.1094C300.075 49.6738 299.755 49.3305 299.343 49.0795C298.936 48.8286 298.458 48.7031 297.908 48.7031C297.312 48.7031 296.791 48.8499 296.346 49.1435C295.906 49.4323 295.565 49.8111 295.323 50.2798C295.086 50.7438 294.968 51.2481 294.968 51.7926V53.0355C294.968 53.7647 295.096 54.3849 295.352 54.8963C295.612 55.4077 295.974 55.7983 296.438 56.0682C296.902 56.3333 297.444 56.4659 298.065 56.4659C298.467 56.4659 298.834 56.4091 299.165 56.2955C299.497 56.1771 299.783 56.0019 300.025 55.7699C300.266 55.5379 300.451 55.2514 300.579 54.9105L302.589 55.2727C302.428 55.8646 302.139 56.383 301.722 56.8281C301.31 57.2685 300.792 57.6117 300.167 57.858C299.547 58.0994 298.839 58.2202 298.043 58.2202ZM316.8 50.9332V52.7727H310.352V50.9332H316.8ZM329.519 58.2202C328.463 58.2202 327.554 57.9811 326.792 57.5028C326.034 57.0199 325.452 56.3546 325.044 55.5071C324.637 54.6596 324.434 53.6889 324.434 52.5952C324.434 51.4872 324.642 50.5095 325.059 49.6619C325.475 48.8097 326.062 48.1444 326.82 47.6662C327.578 47.188 328.47 46.9489 329.498 46.9489C330.326 46.9489 331.065 47.1027 331.713 47.4105C332.362 47.7135 332.885 48.1397 333.283 48.6889C333.685 49.2382 333.925 49.8797 334 50.6136H331.934C331.82 50.1023 331.56 49.6619 331.152 49.2926C330.75 48.9233 330.21 48.7386 329.533 48.7386C328.941 48.7386 328.423 48.8949 327.978 49.2074C327.537 49.5152 327.194 49.9555 326.948 50.5284C326.702 51.0966 326.578 51.7689 326.578 52.5455C326.578 53.3409 326.699 54.0275 326.941 54.6051C327.182 55.1828 327.523 55.6302 327.963 55.9474C328.408 56.2647 328.932 56.4233 329.533 56.4233C329.935 56.4233 330.3 56.3499 330.627 56.2031C330.958 56.0516 331.235 55.8362 331.458 55.5568C331.685 55.2775 331.844 54.9413 331.934 54.5483H334C333.925 55.2538 333.695 55.8835 333.311 56.4375C332.928 56.9915 332.414 57.4271 331.77 57.7443C331.131 58.0616 330.381 58.2202 329.519 58.2202ZM336.271 58V47.0909H338.395V51.6648H339.418L343.018 47.0909H345.646L341.42 52.3963L345.696 58H343.061L339.773 53.6392H338.395V58H336.271ZM349.426 55.0241L354.235 47.0909H356.522V58H354.441V50.0597L349.654 58H347.346V47.0909H349.426V55.0241ZM358.311 61.1463V56.1605H359.199C359.426 55.9522 359.618 55.7036 359.775 55.4148C359.935 55.1259 360.07 54.7827 360.179 54.3849C360.293 53.9872 360.388 53.5232 360.463 52.9929C360.539 52.4579 360.605 51.8471 360.662 51.1605L361.003 47.0909H368.418V56.1605H370.094V61.1463H368.02V58H360.414V61.1463H358.311ZM361.472 56.1605H366.344V48.9091H362.907L362.679 51.1605C362.57 52.3063 362.433 53.3007 362.267 54.1435C362.102 54.9815 361.837 55.6539 361.472 56.1605ZM372.17 58V47.0909H374.293V51.6648H375.316L378.917 47.0909H381.545L377.319 52.3963L381.594 58H378.96L375.671 53.6392H374.293V58H372.17ZM386.419 58.2415C385.727 58.2415 385.102 58.1136 384.544 57.858C383.985 57.5975 383.542 57.2211 383.216 56.7287C382.894 56.2363 382.733 55.6326 382.733 54.9176C382.733 54.3021 382.851 53.7955 383.088 53.3977C383.324 53 383.644 52.6851 384.047 52.4531C384.449 52.2211 384.899 52.0459 385.396 51.9276C385.893 51.8092 386.4 51.7192 386.916 51.6577C387.569 51.5819 388.1 51.5204 388.507 51.473C388.914 51.4209 389.21 51.3381 389.395 51.2244C389.579 51.1108 389.672 50.9261 389.672 50.6705V50.6207C389.672 50.0005 389.496 49.5199 389.146 49.179C388.8 48.8381 388.284 48.6676 387.598 48.6676C386.883 48.6676 386.319 48.8262 385.907 49.1435C385.5 49.456 385.218 49.804 385.062 50.1875L383.066 49.733C383.303 49.0701 383.649 48.535 384.103 48.1278C384.563 47.7159 385.091 47.4176 385.687 47.233C386.284 47.0436 386.911 46.9489 387.569 46.9489C388.005 46.9489 388.467 47.0009 388.954 47.1051C389.447 47.2045 389.906 47.3892 390.332 47.6591C390.763 47.929 391.116 48.3149 391.39 48.8168C391.665 49.3139 391.802 49.9602 391.802 50.7557V58H389.728V56.5085H389.643C389.506 56.7831 389.3 57.053 389.025 57.3182C388.751 57.5833 388.398 57.8035 387.967 57.9787C387.536 58.1539 387.02 58.2415 386.419 58.2415ZM386.88 56.5369C387.467 56.5369 387.969 56.4209 388.386 56.1889C388.807 55.9569 389.127 55.6539 389.345 55.2798C389.567 54.901 389.679 54.4962 389.679 54.0653V52.6591C389.603 52.7348 389.456 52.8059 389.238 52.8722C389.025 52.9337 388.781 52.9882 388.507 53.0355C388.232 53.0781 387.965 53.1184 387.704 53.1562C387.444 53.1894 387.226 53.2178 387.051 53.2415C386.639 53.2936 386.262 53.3812 385.922 53.5043C385.585 53.6274 385.315 53.8049 385.112 54.0369C384.913 54.2642 384.814 54.5672 384.814 54.946C384.814 55.4716 385.008 55.8693 385.396 56.1392C385.784 56.4044 386.279 56.5369 386.88 56.5369ZM405.414 43.4545V58H403.212V45.6562H403.127L399.647 47.929V45.8267L403.276 43.4545H405.414ZM414.412 58.2415C413.29 58.2367 412.331 57.9408 411.536 57.3537C410.74 56.7666 410.132 55.9119 409.711 54.7898C409.289 53.6676 409.078 52.3158 409.078 50.7344C409.078 49.1577 409.289 47.8106 409.711 46.6932C410.137 45.5758 410.748 44.7235 411.543 44.1364C412.343 43.5492 413.3 43.2557 414.412 43.2557C415.525 43.2557 416.479 43.5516 417.275 44.1435C418.07 44.7306 418.678 45.5829 419.1 46.7003C419.526 47.813 419.739 49.1577 419.739 50.7344C419.739 52.3205 419.528 53.6747 419.107 54.7969C418.685 55.9143 418.077 56.7689 417.282 57.3608C416.486 57.9479 415.53 58.2415 414.412 58.2415ZM414.412 56.3452C415.397 56.3452 416.167 55.8646 416.721 54.9034C417.279 53.9422 417.559 52.5526 417.559 50.7344C417.559 49.527 417.431 48.5066 417.175 47.6733C416.924 46.8352 416.562 46.2008 416.088 45.7699C415.62 45.3343 415.061 45.1165 414.412 45.1165C413.432 45.1165 412.663 45.5994 412.104 46.5653C411.545 47.5312 411.264 48.9209 411.259 50.7344C411.259 51.9465 411.384 52.9716 411.635 53.8097C411.891 54.643 412.253 55.2751 412.722 55.706C413.191 56.1321 413.754 56.3452 414.412 56.3452ZM429.851 55.2727V54.5057C429.851 53.9564 429.964 53.4545 430.192 53C430.424 52.5407 430.76 52.1738 431.2 51.8991C431.645 51.6198 432.183 51.4801 432.812 51.4801C433.456 51.4801 433.996 51.6174 434.432 51.892C434.867 52.1667 435.196 52.5336 435.419 52.9929C435.646 53.4522 435.76 53.9564 435.76 54.5057V55.2727C435.76 55.822 435.646 56.3262 435.419 56.7855C435.192 57.2401 434.858 57.607 434.418 57.8864C433.982 58.161 433.447 58.2983 432.812 58.2983C432.173 58.2983 431.634 58.161 431.193 57.8864C430.753 57.607 430.419 57.2401 430.192 56.7855C429.964 56.3262 429.851 55.822 429.851 55.2727ZM431.506 54.5057V55.2727C431.506 55.6799 431.603 56.0492 431.797 56.3807C431.991 56.7121 432.33 56.8778 432.812 56.8778C433.291 56.8778 433.625 56.7121 433.814 56.3807C434.003 56.0492 434.098 55.6799 434.098 55.2727V54.5057C434.098 54.0985 434.006 53.7292 433.821 53.3977C433.641 53.0663 433.305 52.9006 432.812 52.9006C432.339 52.9006 432.003 53.0663 431.804 53.3977C431.605 53.7292 431.506 54.0985 431.506 54.5057ZM422.536 46.9489V46.1818C422.536 45.6326 422.649 45.1283 422.876 44.669C423.108 44.2098 423.445 43.8428 423.885 43.5682C424.33 43.2936 424.867 43.1562 425.497 43.1562C426.141 43.1562 426.681 43.2936 427.116 43.5682C427.552 43.8428 427.881 44.2098 428.104 44.669C428.326 45.1283 428.438 45.6326 428.438 46.1818V46.9489C428.438 47.4981 428.324 48.0024 428.097 48.4616C427.874 48.9162 427.543 49.2831 427.102 49.5625C426.667 49.8371 426.132 49.9744 425.497 49.9744C424.853 49.9744 424.311 49.8371 423.871 49.5625C423.435 49.2831 423.104 48.9162 422.876 48.4616C422.649 48.0024 422.536 47.4981 422.536 46.9489ZM424.197 46.1818V46.9489C424.197 47.3561 424.292 47.7254 424.482 48.0568C424.676 48.3883 425.014 48.554 425.497 48.554C425.971 48.554 426.302 48.3883 426.491 48.0568C426.686 47.7254 426.783 47.3561 426.783 46.9489V46.1818C426.783 45.7746 426.69 45.4053 426.506 45.0739C426.321 44.7424 425.985 44.5767 425.497 44.5767C425.024 44.5767 424.688 44.7424 424.489 45.0739C424.295 45.4053 424.197 45.7746 424.197 46.1818ZM423.21 58L433.21 43.4545H434.908L424.908 58H423.21ZM451.536 51.6293V53.4688H445.627V51.6293H451.536ZM446.223 47.0909V58H444.142V47.0909H446.223ZM453.02 47.0909V58H450.946V47.0909H453.02ZM459.036 58.2415C458.345 58.2415 457.72 58.1136 457.161 57.858C456.602 57.5975 456.159 57.2211 455.833 56.7287C455.511 56.2363 455.35 55.6326 455.35 54.9176C455.35 54.3021 455.468 53.7955 455.705 53.3977C455.942 53 456.261 52.6851 456.664 52.4531C457.066 52.2211 457.516 52.0459 458.013 51.9276C458.51 51.8092 459.017 51.7192 459.533 51.6577C460.186 51.5819 460.717 51.5204 461.124 51.473C461.531 51.4209 461.827 51.3381 462.012 51.2244C462.196 51.1108 462.289 50.9261 462.289 50.6705V50.6207C462.289 50.0005 462.114 49.5199 461.763 49.179C461.417 48.8381 460.901 48.6676 460.215 48.6676C459.5 48.6676 458.936 48.8262 458.525 49.1435C458.117 49.456 457.836 49.804 457.679 50.1875L455.684 49.733C455.92 49.0701 456.266 48.535 456.721 48.1278C457.18 47.7159 457.708 47.4176 458.304 47.233C458.901 47.0436 459.528 46.9489 460.186 46.9489C460.622 46.9489 461.084 47.0009 461.571 47.1051C462.064 47.2045 462.523 47.3892 462.949 47.6591C463.38 47.929 463.733 48.3149 464.007 48.8168C464.282 49.3139 464.419 49.9602 464.419 50.7557V58H462.346V56.5085H462.26C462.123 56.7831 461.917 57.053 461.642 57.3182C461.368 57.5833 461.015 57.8035 460.584 57.9787C460.153 58.1539 459.637 58.2415 459.036 58.2415ZM459.498 56.5369C460.085 56.5369 460.587 56.4209 461.003 56.1889C461.425 55.9569 461.744 55.6539 461.962 55.2798C462.185 54.901 462.296 54.4962 462.296 54.0653V52.6591C462.22 52.7348 462.073 52.8059 461.855 52.8722C461.642 52.9337 461.399 52.9882 461.124 53.0355C460.849 53.0781 460.582 53.1184 460.321 53.1562C460.061 53.1894 459.843 53.2178 459.668 53.2415C459.256 53.2936 458.88 53.3812 458.539 53.5043C458.203 53.6274 457.933 53.8049 457.729 54.0369C457.53 54.2642 457.431 54.5672 457.431 54.946C457.431 55.4716 457.625 55.8693 458.013 56.1392C458.401 56.4044 458.896 56.5369 459.498 56.5369ZM471.475 61.1463V56.1605H472.363C472.591 55.9522 472.782 55.7036 472.939 55.4148C473.1 55.1259 473.234 54.7827 473.343 54.3849C473.457 53.9872 473.552 53.5232 473.627 52.9929C473.703 52.4579 473.77 51.8471 473.826 51.1605L474.167 47.0909H481.582V56.1605H483.258V61.1463H481.184V58H473.578V61.1463H471.475ZM474.636 56.1605H479.508V48.9091H476.071L475.843 51.1605C475.734 52.3063 475.597 53.3007 475.431 54.1435C475.266 54.9815 475.001 55.6539 474.636 56.1605ZM489.929 58.2202C488.906 58.2202 488.014 57.9858 487.251 57.517C486.489 57.0483 485.897 56.3925 485.476 55.5497C485.054 54.7069 484.844 53.7221 484.844 52.5952C484.844 51.4635 485.054 50.474 485.476 49.6264C485.897 48.7789 486.489 48.1207 487.251 47.652C488.014 47.1832 488.906 46.9489 489.929 46.9489C490.952 46.9489 491.844 47.1832 492.607 47.652C493.369 48.1207 493.961 48.7789 494.382 49.6264C494.804 50.474 495.014 51.4635 495.014 52.5952C495.014 53.7221 494.804 54.7069 494.382 55.5497C493.961 56.3925 493.369 57.0483 492.607 57.517C491.844 57.9858 490.952 58.2202 489.929 58.2202ZM489.936 56.4375C490.599 56.4375 491.148 56.2623 491.584 55.9119C492.019 55.5616 492.341 55.0952 492.55 54.5128C492.763 53.9304 492.869 53.2888 492.869 52.5881C492.869 51.892 492.763 51.2528 492.55 50.6705C492.341 50.0833 492.019 49.6122 491.584 49.2571C491.148 48.902 490.599 48.7244 489.936 48.7244C489.268 48.7244 488.714 48.902 488.274 49.2571C487.839 49.6122 487.514 50.0833 487.301 50.6705C487.093 51.2528 486.989 51.892 486.989 52.5881C486.989 53.2888 487.093 53.9304 487.301 54.5128C487.514 55.0952 487.839 55.5616 488.274 55.9119C488.714 56.2623 489.268 56.4375 489.936 56.4375ZM501.98 58.2202C500.924 58.2202 500.015 57.9811 499.252 57.5028C498.495 57.0199 497.913 56.3546 497.505 55.5071C497.098 54.6596 496.895 53.6889 496.895 52.5952C496.895 51.4872 497.103 50.5095 497.52 49.6619C497.936 48.8097 498.523 48.1444 499.281 47.6662C500.038 47.188 500.931 46.9489 501.958 46.9489C502.787 46.9489 503.526 47.1027 504.174 47.4105C504.823 47.7135 505.346 48.1397 505.744 48.6889C506.146 49.2382 506.386 49.8797 506.461 50.6136H504.395C504.281 50.1023 504.02 49.6619 503.613 49.2926C503.211 48.9233 502.671 48.7386 501.994 48.7386C501.402 48.7386 500.884 48.8949 500.439 49.2074C499.998 49.5152 499.655 49.9555 499.409 50.5284C499.163 51.0966 499.039 51.7689 499.039 52.5455C499.039 53.3409 499.16 54.0275 499.402 54.6051C499.643 55.1828 499.984 55.6302 500.424 55.9474C500.869 56.2647 501.393 56.4233 501.994 56.4233C502.396 56.4233 502.761 56.3499 503.088 56.2031C503.419 56.0516 503.696 55.8362 503.919 55.5568C504.146 55.2775 504.305 54.9413 504.395 54.5483H506.461C506.386 55.2538 506.156 55.8835 505.772 56.4375C505.389 56.9915 504.875 57.4271 504.231 57.7443C503.592 58.0616 502.842 58.2202 501.98 58.2202ZM507.907 48.9233V47.0909H517.111V48.9233H513.553V58H511.479V48.9233H507.907ZM522.024 58.2415C521.333 58.2415 520.708 58.1136 520.149 57.858C519.59 57.5975 519.148 57.2211 518.821 56.7287C518.499 56.2363 518.338 55.6326 518.338 54.9176C518.338 54.3021 518.456 53.7955 518.693 53.3977C518.93 53 519.25 52.6851 519.652 52.4531C520.054 52.2211 520.504 52.0459 521.001 51.9276C521.499 51.8092 522.005 51.7192 522.521 51.6577C523.175 51.5819 523.705 51.5204 524.112 51.473C524.519 51.4209 524.815 51.3381 525 51.2244C525.185 51.1108 525.277 50.9261 525.277 50.6705V50.6207C525.277 50.0005 525.102 49.5199 524.751 49.179C524.406 48.8381 523.89 48.6676 523.203 48.6676C522.488 48.6676 521.925 48.8262 521.513 49.1435C521.106 49.456 520.824 49.804 520.668 50.1875L518.672 49.733C518.909 49.0701 519.254 48.535 519.709 48.1278C520.168 47.7159 520.696 47.4176 521.293 47.233C521.889 47.0436 522.517 46.9489 523.175 46.9489C523.61 46.9489 524.072 47.0009 524.56 47.1051C525.052 47.2045 525.511 47.3892 525.938 47.6591C526.368 47.929 526.721 48.3149 526.996 48.8168C527.27 49.3139 527.408 49.9602 527.408 50.7557V58H525.334V56.5085H525.249C525.111 56.7831 524.905 57.053 524.631 57.3182C524.356 57.5833 524.003 57.8035 523.572 57.9787C523.142 58.1539 522.625 58.2415 522.024 58.2415ZM522.486 56.5369C523.073 56.5369 523.575 56.4209 523.991 56.1889C524.413 55.9569 524.732 55.6539 524.95 55.2798C525.173 54.901 525.284 54.4962 525.284 54.0653V52.6591C525.208 52.7348 525.062 52.8059 524.844 52.8722C524.631 52.9337 524.387 52.9882 524.112 53.0355C523.838 53.0781 523.57 53.1184 523.31 53.1562C523.049 53.1894 522.831 53.2178 522.656 53.2415C522.244 53.2936 521.868 53.3812 521.527 53.5043C521.191 53.6274 520.921 53.8049 520.717 54.0369C520.518 54.2642 520.419 54.5672 520.419 54.946C520.419 55.4716 520.613 55.8693 521.001 56.1392C521.39 56.4044 521.884 56.5369 522.486 56.5369ZM530.236 58V47.0909H534.76C535.991 47.0909 536.967 47.3537 537.686 47.8793C538.406 48.4001 538.766 49.108 538.766 50.0028C538.766 50.642 538.562 51.1487 538.155 51.5227C537.748 51.8968 537.208 52.1477 536.536 52.2756C537.024 52.3324 537.471 52.4792 537.878 52.7159C538.285 52.9479 538.612 53.2604 538.858 53.6534C539.109 54.0464 539.235 54.5152 539.235 55.0597C539.235 55.6373 539.086 56.1487 538.787 56.5938C538.489 57.0341 538.056 57.3797 537.488 57.6307C536.924 57.8769 536.245 58 535.449 58H530.236ZM532.232 56.2244H535.449C535.975 56.2244 536.387 56.099 536.685 55.848C536.983 55.5971 537.132 55.2562 537.132 54.8253C537.132 54.3187 536.983 53.9209 536.685 53.6321C536.387 53.3385 535.975 53.1918 535.449 53.1918H532.232V56.2244ZM532.232 51.6364H534.782C535.179 51.6364 535.52 51.5795 535.804 51.4659C536.093 51.3523 536.313 51.1913 536.465 50.983C536.621 50.7699 536.699 50.5189 536.699 50.2301C536.699 49.8087 536.526 49.4796 536.181 49.2429C535.835 49.0062 535.362 48.8878 534.76 48.8878H532.232V51.6364ZM541.564 58V47.0909H543.688V51.6648H544.711L548.311 47.0909H550.939L546.713 52.3963L550.989 58H548.354L545.066 53.6392H543.688V58H541.564ZM554.039 62.0909C553.722 62.0909 553.433 62.0649 553.173 62.0128C552.913 61.9654 552.718 61.9134 552.591 61.8565L553.102 60.1165C553.49 60.2206 553.836 60.2656 554.139 60.2514C554.442 60.2372 554.709 60.1236 554.941 59.9105C555.178 59.6974 555.386 59.3494 555.566 58.8665L555.829 58.142L551.838 47.0909H554.11L556.873 55.5568H556.987L559.75 47.0909H562.029L557.534 59.456C557.325 60.0241 557.06 60.5047 556.738 60.8977C556.416 61.2955 556.033 61.5938 555.588 61.7926C555.143 61.9915 554.627 62.0909 554.039 62.0909ZM48.5085 85.0241L53.3168 77.0909H55.6037V88H53.5227V80.0597L48.7358 88H46.4276V77.0909H48.5085V85.0241ZM68.5245 88.1989C67.6344 88.1989 66.8342 88.0284 66.1239 87.6875C65.4184 87.3419 64.855 86.8684 64.4336 86.267C64.0122 85.6657 63.7873 84.9792 63.7589 84.2074H65.8896C65.9416 84.8324 66.2186 85.3461 66.7205 85.7486C67.2224 86.151 67.8237 86.3523 68.5245 86.3523C69.0832 86.3523 69.578 86.2244 70.0089 85.9688C70.4445 85.7083 70.7854 85.3509 71.0316 84.8963C71.2826 84.4418 71.408 83.9233 71.408 83.3409C71.408 82.7491 71.2802 82.2211 71.0245 81.7571C70.7688 81.2931 70.4161 80.9285 69.9663 80.6634C69.5212 80.3982 69.0098 80.2633 68.4322 80.2585C67.9918 80.2585 67.5491 80.3343 67.104 80.4858C66.659 80.6373 66.2991 80.8362 66.0245 81.0824L64.0146 80.7841L64.8313 73.4545H72.8285V75.3366H66.6566L66.195 79.4062H66.2802C66.5643 79.1316 66.9407 78.902 67.4094 78.7173C67.8829 78.5327 68.3896 78.4403 68.9293 78.4403C69.8147 78.4403 70.6031 78.651 71.2944 79.0724C71.9904 79.4938 72.5373 80.0691 72.935 80.7983C73.3375 81.5227 73.5363 82.3561 73.5316 83.2983C73.5363 84.2405 73.3233 85.081 72.8924 85.8196C72.4663 86.5582 71.8744 87.1406 71.1168 87.5668C70.364 87.9882 69.4999 88.1989 68.5245 88.1989ZM83.718 85.2727V84.5057C83.718 83.9564 83.8317 83.4545 84.0589 83C84.291 82.5407 84.6271 82.1738 85.0675 81.8991C85.5125 81.6198 86.05 81.4801 86.6797 81.4801C87.3236 81.4801 87.8634 81.6174 88.299 81.892C88.7346 82.1667 89.0637 82.5336 89.2862 82.9929C89.5135 83.4522 89.6271 83.9564 89.6271 84.5057V85.2727C89.6271 85.822 89.5135 86.3262 89.2862 86.7855C89.0589 87.2401 88.7251 87.607 88.2848 87.8864C87.8492 88.161 87.3142 88.2983 86.6797 88.2983C86.0405 88.2983 85.5007 88.161 85.0604 87.8864C84.62 87.607 84.2862 87.2401 84.0589 86.7855C83.8317 86.3262 83.718 85.822 83.718 85.2727ZM85.3729 84.5057V85.2727C85.3729 85.6799 85.4699 86.0492 85.6641 86.3807C85.8582 86.7121 86.1967 86.8778 86.6797 86.8778C87.1579 86.8778 87.4917 86.7121 87.6811 86.3807C87.8705 86.0492 87.9652 85.6799 87.9652 85.2727V84.5057C87.9652 84.0985 87.8729 83.7292 87.6882 83.3977C87.5083 83.0663 87.1721 82.9006 86.6797 82.9006C86.2062 82.9006 85.87 83.0663 85.6712 83.3977C85.4723 83.7292 85.3729 84.0985 85.3729 84.5057ZM76.4027 76.9489V76.1818C76.4027 75.6326 76.5163 75.1283 76.7436 74.669C76.9756 74.2098 77.3118 73.8428 77.7521 73.5682C78.1972 73.2936 78.7346 73.1562 79.3643 73.1562C80.0083 73.1562 80.5481 73.2936 80.9837 73.5682C81.4193 73.8428 81.7483 74.2098 81.9709 74.669C82.1934 75.1283 82.3047 75.6326 82.3047 76.1818V76.9489C82.3047 77.4981 82.1911 78.0024 81.9638 78.4616C81.7412 78.9162 81.4098 79.2831 80.9695 79.5625C80.5339 79.8371 79.9988 79.9744 79.3643 79.9744C78.7204 79.9744 78.1783 79.8371 77.7379 79.5625C77.3023 79.2831 76.9709 78.9162 76.7436 78.4616C76.5163 78.0024 76.4027 77.4981 76.4027 76.9489ZM78.0646 76.1818V76.9489C78.0646 77.3561 78.1593 77.7254 78.3487 78.0568C78.5429 78.3883 78.8814 78.554 79.3643 78.554C79.8378 78.554 80.1693 78.3883 80.3587 78.0568C80.5528 77.7254 80.6499 77.3561 80.6499 76.9489V76.1818C80.6499 75.7746 80.5575 75.4053 80.3729 75.0739C80.1882 74.7424 79.852 74.5767 79.3643 74.5767C78.8909 74.5767 78.5547 74.7424 78.3558 75.0739C78.1617 75.4053 78.0646 75.7746 78.0646 76.1818ZM77.0774 88L87.0774 73.4545H88.7749L78.7749 88H77.0774ZM105.403 81.6293V83.4688H99.494V81.6293H105.403ZM100.091 77.0909V88H98.0096V77.0909H100.091ZM106.887 77.0909V88H104.814V77.0909H106.887ZM112.903 88.2415C112.212 88.2415 111.587 88.1136 111.028 87.858C110.469 87.5975 110.027 87.2211 109.7 86.7287C109.378 86.2363 109.217 85.6326 109.217 84.9176C109.217 84.3021 109.335 83.7955 109.572 83.3977C109.809 83 110.128 82.6851 110.531 82.4531C110.933 82.2211 111.383 82.0459 111.88 81.9276C112.377 81.8092 112.884 81.7192 113.4 81.6577C114.054 81.5819 114.584 81.5204 114.991 81.473C115.398 81.4209 115.694 81.3381 115.879 81.2244C116.064 81.1108 116.156 80.9261 116.156 80.6705V80.6207C116.156 80.0005 115.981 79.5199 115.63 79.179C115.285 78.8381 114.769 78.6676 114.082 78.6676C113.367 78.6676 112.804 78.8262 112.392 79.1435C111.984 79.456 111.703 79.804 111.547 80.1875L109.551 79.733C109.788 79.0701 110.133 78.535 110.588 78.1278C111.047 77.7159 111.575 77.4176 112.172 77.233C112.768 77.0436 113.395 76.9489 114.054 76.9489C114.489 76.9489 114.951 77.0009 115.439 77.1051C115.931 77.2045 116.39 77.3892 116.816 77.6591C117.247 77.929 117.6 78.3149 117.875 78.8168C118.149 79.3139 118.287 79.9602 118.287 80.7557V88H116.213V86.5085H116.127C115.99 86.7831 115.784 87.053 115.51 87.3182C115.235 87.5833 114.882 87.8035 114.451 87.9787C114.02 88.1539 113.504 88.2415 112.903 88.2415ZM113.365 86.5369C113.952 86.5369 114.454 86.4209 114.87 86.1889C115.292 85.9569 115.611 85.6539 115.829 85.2798C116.052 84.901 116.163 84.4962 116.163 84.0653V82.6591C116.087 82.7348 115.94 82.8059 115.723 82.8722C115.51 82.9337 115.266 82.9882 114.991 83.0355C114.717 83.0781 114.449 83.1184 114.189 83.1562C113.928 83.1894 113.71 83.2178 113.535 83.2415C113.123 83.2936 112.747 83.3812 112.406 83.5043C112.07 83.6274 111.8 83.8049 111.596 84.0369C111.397 84.2642 111.298 84.5672 111.298 84.946C111.298 85.4716 111.492 85.8693 111.88 86.1392C112.269 86.4044 112.763 86.5369 113.365 86.5369ZM132.53 85.3722L136.053 77.0909H137.885L133.319 88H131.742L127.267 77.0909H129.078L132.53 85.3722ZM128.489 77.0909V88H126.408V77.0909H128.489ZM136.628 88V77.0909H138.695V88H136.628ZM144.7 88.2415C144.009 88.2415 143.384 88.1136 142.825 87.858C142.266 87.5975 141.824 87.2211 141.497 86.7287C141.175 86.2363 141.014 85.6326 141.014 84.9176C141.014 84.3021 141.132 83.7955 141.369 83.3977C141.606 83 141.925 82.6851 142.328 82.4531C142.73 82.2211 143.18 82.0459 143.677 81.9276C144.174 81.8092 144.681 81.7192 145.197 81.6577C145.85 81.5819 146.381 81.5204 146.788 81.473C147.195 81.4209 147.491 81.3381 147.676 81.2244C147.86 81.1108 147.953 80.9261 147.953 80.6705V80.6207C147.953 80.0005 147.778 79.5199 147.427 79.179C147.082 78.8381 146.565 78.6676 145.879 78.6676C145.164 78.6676 144.6 78.8262 144.189 79.1435C143.781 79.456 143.5 79.804 143.343 80.1875L141.348 79.733C141.584 79.0701 141.93 78.535 142.385 78.1278C142.844 77.7159 143.372 77.4176 143.968 77.233C144.565 77.0436 145.192 76.9489 145.85 76.9489C146.286 76.9489 146.748 77.0009 147.235 77.1051C147.728 77.2045 148.187 77.3892 148.613 77.6591C149.044 77.929 149.397 78.3149 149.672 78.8168C149.946 79.3139 150.083 79.9602 150.083 80.7557V88H148.01V86.5085H147.924C147.787 86.7831 147.581 87.053 147.306 87.3182C147.032 87.5833 146.679 87.8035 146.248 87.9787C145.817 88.1539 145.301 88.2415 144.7 88.2415ZM145.162 86.5369C145.749 86.5369 146.251 86.4209 146.667 86.1889C147.089 85.9569 147.408 85.6539 147.626 85.2798C147.849 84.901 147.96 84.4962 147.96 84.0653V82.6591C147.884 82.7348 147.737 82.8059 147.52 82.8722C147.306 82.9337 147.063 82.9882 146.788 83.0355C146.513 83.0781 146.246 83.1184 145.985 83.1562C145.725 83.1894 145.507 83.2178 145.332 83.2415C144.92 83.2936 144.544 83.3812 144.203 83.5043C143.867 83.6274 143.597 83.8049 143.393 84.0369C143.194 84.2642 143.095 84.5672 143.095 84.946C143.095 85.4716 143.289 85.8693 143.677 86.1392C144.065 86.4044 144.56 86.5369 145.162 86.5369ZM151.559 78.9233V77.0909H160.763V78.9233H157.205V88H155.131V78.9233H151.559ZM167.203 88.2202C166.129 88.2202 165.203 87.9905 164.426 87.5312C163.655 87.0672 163.058 86.4162 162.637 85.5781C162.22 84.7353 162.012 83.7481 162.012 82.6165C162.012 81.4991 162.22 80.5142 162.637 79.6619C163.058 78.8097 163.645 78.1444 164.398 77.6662C165.156 77.188 166.041 76.9489 167.054 76.9489C167.67 76.9489 168.266 77.0507 168.844 77.2543C169.422 77.4579 169.94 77.7775 170.4 78.2131C170.859 78.6487 171.221 79.2145 171.486 79.9105C171.751 80.6018 171.884 81.4422 171.884 82.4318V83.1847H163.212V81.5938H169.803C169.803 81.035 169.689 80.5402 169.462 80.1094C169.235 79.6738 168.915 79.3305 168.503 79.0795C168.096 78.8286 167.618 78.7031 167.069 78.7031C166.472 78.7031 165.951 78.8499 165.506 79.1435C165.066 79.4323 164.725 79.8111 164.483 80.2798C164.247 80.7438 164.128 81.2481 164.128 81.7926V83.0355C164.128 83.7647 164.256 84.3849 164.512 84.8963C164.772 85.4077 165.134 85.7983 165.598 86.0682C166.062 86.3333 166.605 86.4659 167.225 86.4659C167.627 86.4659 167.994 86.4091 168.326 86.2955C168.657 86.1771 168.944 86.0019 169.185 85.7699C169.426 85.5379 169.611 85.2514 169.739 84.9105L171.749 85.2727C171.588 85.8646 171.299 86.383 170.882 86.8281C170.471 87.2685 169.952 87.6117 169.327 87.858C168.707 88.0994 167.999 88.2202 167.203 88.2202ZM174.24 92.0909V77.0909H176.314V78.8594H176.491C176.615 78.6321 176.792 78.3693 177.024 78.071C177.256 77.7727 177.578 77.5123 177.99 77.2898C178.402 77.0625 178.946 76.9489 179.624 76.9489C180.504 76.9489 181.29 77.1714 181.982 77.6165C182.673 78.0616 183.215 78.7031 183.608 79.5412C184.006 80.3793 184.205 81.3878 184.205 82.5668C184.205 83.7457 184.008 84.7566 183.615 85.5994C183.222 86.4375 182.682 87.0838 181.996 87.5384C181.309 87.9882 180.526 88.2131 179.645 88.2131C178.982 88.2131 178.44 88.1018 178.018 87.8793C177.602 87.6567 177.275 87.3963 177.038 87.098C176.802 86.7997 176.619 86.5346 176.491 86.3026H176.364V92.0909H174.24ZM176.321 82.5455C176.321 83.3125 176.432 83.9848 176.655 84.5625C176.877 85.1402 177.199 85.5923 177.621 85.919C178.042 86.241 178.558 86.402 179.169 86.402C179.804 86.402 180.334 86.2339 180.76 85.8977C181.186 85.5568 181.508 85.0952 181.726 84.5128C181.948 83.9304 182.06 83.2746 182.06 82.5455C182.06 81.8258 181.951 81.1795 181.733 80.6065C181.52 80.0336 181.198 79.5814 180.767 79.25C180.341 78.9186 179.808 78.7528 179.169 78.7528C178.554 78.7528 178.033 78.9115 177.607 79.2287C177.185 79.5459 176.866 79.9886 176.648 80.5568C176.43 81.125 176.321 81.7879 176.321 82.5455ZM188.665 85.0241L193.473 77.0909H195.76V88H193.679V80.0597L188.892 88H186.584V77.0909H188.665V85.0241ZM201.79 88.2415C201.098 88.2415 200.473 88.1136 199.915 87.858C199.356 87.5975 198.913 87.2211 198.587 86.7287C198.265 86.2363 198.104 85.6326 198.104 84.9176C198.104 84.3021 198.222 83.7955 198.459 83.3977C198.696 83 199.015 82.6851 199.418 82.4531C199.82 82.2211 200.27 82.0459 200.767 81.9276C201.264 81.8092 201.771 81.7192 202.287 81.6577C202.94 81.5819 203.471 81.5204 203.878 81.473C204.285 81.4209 204.581 81.3381 204.766 81.2244C204.95 81.1108 205.043 80.9261 205.043 80.6705V80.6207C205.043 80.0005 204.867 79.5199 204.517 79.179C204.171 78.8381 203.655 78.6676 202.969 78.6676C202.254 78.6676 201.69 78.8262 201.278 79.1435C200.871 79.456 200.589 79.804 200.433 80.1875L198.438 79.733C198.674 79.0701 199.02 78.535 199.474 78.1278C199.934 77.7159 200.462 77.4176 201.058 77.233C201.655 77.0436 202.282 76.9489 202.94 76.9489C203.376 76.9489 203.838 77.0009 204.325 77.1051C204.818 77.2045 205.277 77.3892 205.703 77.6591C206.134 77.929 206.487 78.3149 206.761 78.8168C207.036 79.3139 207.173 79.9602 207.173 80.7557V88H205.099V86.5085H205.014C204.877 86.7831 204.671 87.053 204.396 87.3182C204.122 87.5833 203.769 87.8035 203.338 87.9787C202.907 88.1539 202.391 88.2415 201.79 88.2415ZM202.251 86.5369C202.839 86.5369 203.34 86.4209 203.757 86.1889C204.179 85.9569 204.498 85.6539 204.716 85.2798C204.938 84.901 205.05 84.4962 205.05 84.0653V82.6591C204.974 82.7348 204.827 82.8059 204.609 82.8722C204.396 82.9337 204.152 82.9882 203.878 83.0355C203.603 83.0781 203.336 83.1184 203.075 83.1562C202.815 83.1894 202.597 83.2178 202.422 83.2415C202.01 83.2936 201.634 83.3812 201.293 83.5043C200.956 83.6274 200.687 83.8049 200.483 84.0369C200.284 84.2642 200.185 84.5672 200.185 84.946C200.185 85.4716 200.379 85.8693 200.767 86.1392C201.155 86.4044 201.65 86.5369 202.251 86.5369ZM209.142 88L209.135 86.1605H209.526C209.829 86.1605 210.082 86.0966 210.286 85.9688C210.494 85.8362 210.665 85.6136 210.797 85.3011C210.93 84.9886 211.032 84.5578 211.103 84.0085C211.174 83.4545 211.226 82.7585 211.259 81.9205L211.451 77.0909H219.064V88H216.983V78.9233H213.418L213.248 82.6307C213.205 83.5303 213.113 84.3163 212.971 84.9886C212.833 85.661 212.632 86.2221 212.367 86.6719C212.102 87.117 211.761 87.4508 211.344 87.6733C210.927 87.8911 210.421 88 209.824 88H209.142ZM224.574 73.4545L224.389 83.8168H222.422L222.237 73.4545H224.574ZM223.409 88.1349C223.016 88.1349 222.68 87.9976 222.401 87.723C222.121 87.4437 221.984 87.1075 221.989 86.7145C221.984 86.3262 222.121 85.9948 222.401 85.7202C222.68 85.4408 223.016 85.3011 223.409 85.3011C223.793 85.3011 224.124 85.4408 224.403 85.7202C224.683 85.9948 224.825 86.3262 224.83 86.7145C224.825 86.9749 224.756 87.214 224.624 87.4318C224.496 87.6449 224.325 87.8153 224.112 87.9432C223.899 88.071 223.665 88.1349 223.409 88.1349Z" fill="white"/>
<rect x="1185" y="44" width="300" height="50" rx="5" fill="#E17D21"/>
<path d="M1214.46 76.1989C1213.49 76.1989 1212.62 76.0308 1211.85 75.6946C1211.09 75.3584 1210.48 74.892 1210.04 74.2955C1209.6 73.6941 1209.36 72.9981 1209.33 72.2074H1211.56C1211.59 72.6383 1211.73 73.0123 1211.99 73.3295C1212.26 73.642 1212.6 73.8835 1213.03 74.054C1213.45 74.2244 1213.93 74.3097 1214.45 74.3097C1215.02 74.3097 1215.53 74.2102 1215.97 74.0114C1216.41 73.8125 1216.76 73.5355 1217.01 73.1804C1217.26 72.8205 1217.39 72.4062 1217.39 71.9375C1217.39 71.4498 1217.26 71.0213 1217.01 70.652C1216.77 70.2779 1216.4 69.9844 1215.93 69.7713C1215.45 69.5582 1214.88 69.4517 1214.21 69.4517H1212.98V67.6619H1214.21C1214.75 67.6619 1215.22 67.5649 1215.63 67.3707C1216.04 67.1766 1216.36 66.9067 1216.59 66.5611C1216.83 66.2107 1216.94 65.8011 1216.94 65.3324C1216.94 64.8826 1216.84 64.492 1216.64 64.1605C1216.44 63.8243 1216.15 63.5616 1215.78 63.3722C1215.42 63.1828 1214.99 63.0881 1214.49 63.0881C1214.02 63.0881 1213.58 63.1757 1213.16 63.3509C1212.76 63.5213 1212.42 63.7675 1212.17 64.0895C1211.91 64.4067 1211.78 64.7879 1211.76 65.233H1209.63C1209.66 64.447 1209.89 63.7557 1210.33 63.1591C1210.77 62.5625 1211.36 62.0961 1212.09 61.7599C1212.82 61.4238 1213.63 61.2557 1214.52 61.2557C1215.45 61.2557 1216.26 61.438 1216.93 61.8026C1217.62 62.1624 1218.14 62.643 1218.51 63.2443C1218.89 63.8456 1219.07 64.5038 1219.07 65.2188C1219.07 66.0331 1218.84 66.7244 1218.38 67.2926C1217.93 67.8608 1217.32 68.242 1216.57 68.4361V68.5497C1217.53 68.6965 1218.28 69.08 1218.81 69.7003C1219.34 70.3205 1219.61 71.09 1219.61 72.0085C1219.61 72.8087 1219.39 73.526 1218.94 74.1605C1218.49 74.795 1217.88 75.2945 1217.11 75.6591C1216.34 76.0189 1215.46 76.1989 1214.46 76.1989ZM1225.49 76.2415C1224.8 76.2415 1224.18 76.1136 1223.62 75.858C1223.06 75.5975 1222.62 75.2211 1222.29 74.7287C1221.97 74.2363 1221.81 73.6326 1221.81 72.9176C1221.81 72.3021 1221.93 71.7955 1222.16 71.3977C1222.4 71 1222.72 70.6851 1223.12 70.4531C1223.52 70.2211 1223.97 70.0459 1224.47 69.9276C1224.97 69.8092 1225.47 69.7192 1225.99 69.6577C1226.64 69.5819 1227.17 69.5204 1227.58 69.473C1227.99 69.4209 1228.28 69.3381 1228.47 69.2244C1228.65 69.1108 1228.75 68.9261 1228.75 68.6705V68.6207C1228.75 68.0005 1228.57 67.5199 1228.22 67.179C1227.87 66.8381 1227.36 66.6676 1226.67 66.6676C1225.96 66.6676 1225.39 66.8262 1224.98 67.1435C1224.57 67.456 1224.29 67.804 1224.14 68.1875L1222.14 67.733C1222.38 67.0701 1222.72 66.535 1223.18 66.1278C1223.64 65.7159 1224.16 65.4176 1224.76 65.233C1225.36 65.0436 1225.99 64.9489 1226.64 64.9489C1227.08 64.9489 1227.54 65.0009 1228.03 65.1051C1228.52 65.2045 1228.98 65.3892 1229.41 65.6591C1229.84 65.929 1230.19 66.3149 1230.46 66.8168C1230.74 67.3139 1230.88 67.9602 1230.88 68.7557V76H1228.8V74.5085H1228.72C1228.58 74.7831 1228.37 75.053 1228.1 75.3182C1227.82 75.5833 1227.47 75.8035 1227.04 75.9787C1226.61 76.1539 1226.09 76.2415 1225.49 76.2415ZM1225.95 74.5369C1226.54 74.5369 1227.04 74.4209 1227.46 74.1889C1227.88 73.9569 1228.2 73.6539 1228.42 73.2798C1228.64 72.901 1228.75 72.4962 1228.75 72.0653V70.6591C1228.68 70.7348 1228.53 70.8059 1228.31 70.8722C1228.1 70.9337 1227.86 70.9882 1227.58 71.0355C1227.31 71.0781 1227.04 71.1184 1226.78 71.1562C1226.52 71.1894 1226.3 71.2178 1226.12 71.2415C1225.71 71.2936 1225.34 71.3812 1225 71.5043C1224.66 71.6274 1224.39 71.8049 1224.19 72.0369C1223.99 72.2642 1223.89 72.5672 1223.89 72.946C1223.89 73.4716 1224.08 73.8693 1224.47 74.1392C1224.86 74.4044 1225.35 74.5369 1225.95 74.5369ZM1233.7 76V65.0909H1235.83V69.6648H1236.85L1240.45 65.0909H1243.08L1238.85 70.3963L1243.13 76H1240.49L1237.21 71.6392H1235.83V76H1233.7ZM1247.95 76.2415C1247.26 76.2415 1246.64 76.1136 1246.08 75.858C1245.52 75.5975 1245.08 75.2211 1244.75 74.7287C1244.43 74.2363 1244.27 73.6326 1244.27 72.9176C1244.27 72.3021 1244.39 71.7955 1244.62 71.3977C1244.86 71 1245.18 70.6851 1245.58 70.4531C1245.98 70.2211 1246.43 70.0459 1246.93 69.9276C1247.43 69.8092 1247.93 69.7192 1248.45 69.6577C1249.1 69.5819 1249.63 69.5204 1250.04 69.473C1250.45 69.4209 1250.75 69.3381 1250.93 69.2244C1251.11 69.1108 1251.21 68.9261 1251.21 68.6705V68.6207C1251.21 68.0005 1251.03 67.5199 1250.68 67.179C1250.34 66.8381 1249.82 66.6676 1249.13 66.6676C1248.42 66.6676 1247.85 66.8262 1247.44 67.1435C1247.04 67.456 1246.75 67.804 1246.6 68.1875L1244.6 67.733C1244.84 67.0701 1245.18 66.535 1245.64 66.1278C1246.1 65.7159 1246.63 65.4176 1247.22 65.233C1247.82 65.0436 1248.45 64.9489 1249.1 64.9489C1249.54 64.9489 1250 65.0009 1250.49 65.1051C1250.98 65.2045 1251.44 65.3892 1251.87 65.6591C1252.3 65.929 1252.65 66.3149 1252.93 66.8168C1253.2 67.3139 1253.34 67.9602 1253.34 68.7557V76H1251.26V74.5085H1251.18C1251.04 74.7831 1250.83 75.053 1250.56 75.3182C1250.29 75.5833 1249.93 75.8035 1249.5 75.9787C1249.07 76.1539 1248.56 76.2415 1247.95 76.2415ZM1248.42 74.5369C1249 74.5369 1249.5 74.4209 1249.92 74.1889C1250.34 73.9569 1250.66 73.6539 1250.88 73.2798C1251.1 72.901 1251.21 72.4962 1251.21 72.0653V70.6591C1251.14 70.7348 1250.99 70.8059 1250.77 70.8722C1250.56 70.9337 1250.32 70.9882 1250.04 71.0355C1249.77 71.0781 1249.5 71.1184 1249.24 71.1562C1248.98 71.1894 1248.76 71.2178 1248.59 71.2415C1248.17 71.2936 1247.8 71.3812 1247.46 71.5043C1247.12 71.6274 1246.85 71.8049 1246.65 72.0369C1246.45 72.2642 1246.35 72.5672 1246.35 72.946C1246.35 73.4716 1246.54 73.8693 1246.93 74.1392C1247.32 74.4044 1247.81 74.5369 1248.42 74.5369ZM1255.52 73.1165H1257.69C1257.72 73.5616 1257.92 73.9048 1258.3 74.1463C1258.68 74.3878 1259.17 74.5085 1259.77 74.5085C1260.38 74.5085 1260.9 74.3783 1261.33 74.1179C1261.76 73.8527 1261.98 73.4432 1261.98 72.8892C1261.98 72.5578 1261.89 72.2689 1261.73 72.0227C1261.57 71.7718 1261.34 71.5777 1261.04 71.4403C1260.74 71.303 1260.4 71.2344 1259.99 71.2344H1258.22V69.5653H1259.99C1260.6 69.5653 1261.05 69.428 1261.34 69.1534C1261.64 68.8788 1261.79 68.5355 1261.79 68.1236C1261.79 67.6785 1261.63 67.321 1261.31 67.0511C1260.99 66.7765 1260.55 66.6392 1259.98 66.6392C1259.4 66.6392 1258.92 66.7694 1258.54 67.0298C1258.15 67.2855 1257.95 67.617 1257.93 68.0241H1255.79C1255.8 67.4134 1255.99 66.8783 1256.34 66.419C1256.7 65.955 1257.19 65.5952 1257.79 65.3395C1258.4 65.0791 1259.1 64.9489 1259.87 64.9489C1260.68 64.9489 1261.38 65.0791 1261.98 65.3395C1262.57 65.5999 1263.02 65.9598 1263.35 66.419C1263.67 66.8783 1263.84 67.4062 1263.84 68.0028C1263.84 68.6042 1263.66 69.0966 1263.3 69.4801C1262.94 69.8589 1262.48 70.1312 1261.9 70.2969V70.4105C1262.33 70.4389 1262.7 70.5668 1263.03 70.794C1263.35 71.0213 1263.61 71.322 1263.79 71.696C1263.98 72.0701 1264.07 72.4938 1264.07 72.9673C1264.07 73.6349 1263.89 74.2126 1263.52 74.7003C1263.15 75.188 1262.65 75.5644 1262 75.8295C1261.35 76.09 1260.62 76.2202 1259.79 76.2202C1258.98 76.2202 1258.26 76.0947 1257.62 75.8438C1256.99 75.5881 1256.48 75.2282 1256.11 74.7642C1255.74 74.3002 1255.54 73.7509 1255.52 73.1165ZM1267.86 68.8409H1271.03C1272.36 68.8409 1273.39 69.1723 1274.11 69.8352C1274.83 70.4981 1275.19 71.3527 1275.19 72.3991C1275.19 73.081 1275.03 73.6941 1274.71 74.2386C1274.39 74.7831 1273.92 75.214 1273.29 75.5312C1272.67 75.8438 1271.92 76 1271.03 76H1266.26V65.0909H1268.34V74.1676H1271.03C1271.64 74.1676 1272.14 74.009 1272.53 73.6918C1272.93 73.3698 1273.12 72.9602 1273.12 72.4631C1273.12 71.9375 1272.93 71.509 1272.53 71.1776C1272.14 70.8414 1271.64 70.6733 1271.03 70.6733H1267.86V68.8409ZM1276.74 76V65.0909H1278.86V76H1276.74ZM1281.71 76V65.0909H1286.24C1287.47 65.0909 1288.44 65.3537 1289.16 65.8793C1289.88 66.4001 1290.24 67.108 1290.24 68.0028C1290.24 68.642 1290.04 69.1487 1289.63 69.5227C1289.22 69.8968 1288.68 70.1477 1288.01 70.2756C1288.5 70.3324 1288.95 70.4792 1289.35 70.7159C1289.76 70.9479 1290.09 71.2604 1290.33 71.6534C1290.59 72.0464 1290.71 72.5152 1290.71 73.0597C1290.71 73.6373 1290.56 74.1487 1290.26 74.5938C1289.97 75.0341 1289.53 75.3797 1288.96 75.6307C1288.4 75.8769 1287.72 76 1286.93 76H1281.71ZM1283.71 74.2244H1286.93C1287.45 74.2244 1287.86 74.099 1288.16 73.848C1288.46 73.5971 1288.61 73.2562 1288.61 72.8253C1288.61 72.3187 1288.46 71.9209 1288.16 71.6321C1287.86 71.3385 1287.45 71.1918 1286.93 71.1918H1283.71V74.2244ZM1283.71 69.6364H1286.26C1286.66 69.6364 1287 69.5795 1287.28 69.4659C1287.57 69.3523 1287.79 69.1913 1287.94 68.983C1288.1 68.7699 1288.18 68.5189 1288.18 68.2301C1288.18 67.8087 1288 67.4796 1287.66 67.2429C1287.31 67.0062 1286.84 66.8878 1286.24 66.8878H1283.71V69.6364ZM1296.22 76.2415C1295.52 76.2415 1294.9 76.1136 1294.34 75.858C1293.78 75.5975 1293.34 75.2211 1293.01 74.7287C1292.69 74.2363 1292.53 73.6326 1292.53 72.9176C1292.53 72.3021 1292.65 71.7955 1292.88 71.3977C1293.12 71 1293.44 70.6851 1293.84 70.4531C1294.25 70.2211 1294.7 70.0459 1295.19 69.9276C1295.69 69.8092 1296.2 69.7192 1296.71 69.6577C1297.37 69.5819 1297.9 69.5204 1298.3 69.473C1298.71 69.4209 1299.01 69.3381 1299.19 69.2244C1299.38 69.1108 1299.47 68.9261 1299.47 68.6705V68.6207C1299.47 68.0005 1299.29 67.5199 1298.94 67.179C1298.6 66.8381 1298.08 66.6676 1297.39 66.6676C1296.68 66.6676 1296.12 66.8262 1295.7 67.1435C1295.3 67.456 1295.02 67.804 1294.86 68.1875L1292.86 67.733C1293.1 67.0701 1293.45 66.535 1293.9 66.1278C1294.36 65.7159 1294.89 65.4176 1295.48 65.233C1296.08 65.0436 1296.71 64.9489 1297.37 64.9489C1297.8 64.9489 1298.26 65.0009 1298.75 65.1051C1299.24 65.2045 1299.7 65.3892 1300.13 65.6591C1300.56 65.929 1300.91 66.3149 1301.19 66.8168C1301.46 67.3139 1301.6 67.9602 1301.6 68.7557V76H1299.53V74.5085H1299.44C1299.3 74.7831 1299.1 75.053 1298.82 75.3182C1298.55 75.5833 1298.19 75.8035 1297.76 75.9787C1297.33 76.1539 1296.82 76.2415 1296.22 76.2415ZM1296.68 74.5369C1297.26 74.5369 1297.77 74.4209 1298.18 74.1889C1298.6 73.9569 1298.92 73.6539 1299.14 73.2798C1299.36 72.901 1299.48 72.4962 1299.48 72.0653V70.6591C1299.4 70.7348 1299.25 70.8059 1299.04 70.8722C1298.82 70.9337 1298.58 70.9882 1298.3 71.0355C1298.03 71.0781 1297.76 71.1184 1297.5 71.1562C1297.24 71.1894 1297.02 71.2178 1296.85 71.2415C1296.44 71.2936 1296.06 71.3812 1295.72 71.5043C1295.38 71.6274 1295.11 71.8049 1294.91 72.0369C1294.71 72.2642 1294.61 72.5672 1294.61 72.946C1294.61 73.4716 1294.8 73.8693 1295.19 74.1392C1295.58 74.4044 1296.08 74.5369 1296.68 74.5369ZM1309.92 69.7074V71.554H1304.1V69.7074H1309.92ZM1305.83 65.0909V76H1303.7V65.0909H1305.83ZM1313.24 76.2202C1312.23 76.2202 1311.34 75.9834 1310.59 75.5099C1309.83 75.0365 1309.24 74.3783 1308.82 73.5355C1308.41 72.688 1308.2 71.7055 1308.2 70.5881C1308.2 69.4612 1308.41 68.4763 1308.82 67.6335C1309.24 66.786 1309.83 66.1278 1310.59 65.6591C1311.34 65.1856 1312.23 64.9489 1313.24 64.9489C1314.26 64.9489 1315.14 65.1856 1315.9 65.6591C1316.66 66.1278 1317.24 66.786 1317.66 67.6335C1318.08 68.4763 1318.29 69.4612 1318.29 70.5881C1318.29 71.7055 1318.08 72.688 1317.66 73.5355C1317.24 74.3783 1316.66 75.0365 1315.9 75.5099C1315.14 75.9834 1314.26 76.2202 1313.24 76.2202ZM1313.24 74.402C1313.93 74.402 1314.49 74.2292 1314.92 73.8835C1315.37 73.5331 1315.69 73.0691 1315.9 72.4915C1316.11 71.9138 1316.21 71.2794 1316.21 70.5881C1316.21 69.892 1316.11 69.2552 1315.9 68.6776C1315.69 68.0952 1315.37 67.6288 1314.92 67.2784C1314.49 66.928 1313.93 66.7528 1313.24 66.7528C1312.56 66.7528 1312 66.928 1311.56 67.2784C1311.12 67.6288 1310.79 68.0952 1310.59 68.6776C1310.38 69.2552 1310.27 69.892 1310.27 70.5881C1310.27 71.2794 1310.38 71.9138 1310.59 72.4915C1310.79 73.0691 1311.12 73.5331 1311.56 73.8835C1312 74.2292 1312.56 74.402 1313.24 74.402ZM1326.09 76V65.0909H1334.99V76H1332.91V66.9233H1328.15V76H1326.09ZM1337.83 80.0909V65.0909H1339.9V66.8594H1340.08C1340.2 66.6321 1340.38 66.3693 1340.61 66.071C1340.84 65.7727 1341.16 65.5123 1341.58 65.2898C1341.99 65.0625 1342.53 64.9489 1343.21 64.9489C1344.09 64.9489 1344.88 65.1714 1345.57 65.6165C1346.26 66.0616 1346.8 66.7031 1347.19 67.5412C1347.59 68.3793 1347.79 69.3878 1347.79 70.5668C1347.79 71.7457 1347.59 72.7566 1347.2 73.5994C1346.81 74.4375 1346.27 75.0838 1345.58 75.5384C1344.9 75.9882 1344.11 76.2131 1343.23 76.2131C1342.57 76.2131 1342.03 76.1018 1341.6 75.8793C1341.19 75.6567 1340.86 75.3963 1340.62 75.098C1340.39 74.7997 1340.21 74.5346 1340.08 74.3026H1339.95V80.0909H1337.83ZM1339.91 70.5455C1339.91 71.3125 1340.02 71.9848 1340.24 72.5625C1340.46 73.1402 1340.79 73.5923 1341.21 73.919C1341.63 74.241 1342.14 74.402 1342.75 74.402C1343.39 74.402 1343.92 74.2339 1344.35 73.8977C1344.77 73.5568 1345.09 73.0952 1345.31 72.5128C1345.53 71.9304 1345.65 71.2746 1345.65 70.5455C1345.65 69.8258 1345.54 69.1795 1345.32 68.6065C1345.11 68.0336 1344.78 67.5814 1344.35 67.25C1343.93 66.9186 1343.39 66.7528 1342.75 66.7528C1342.14 66.7528 1341.62 66.9115 1341.19 67.2287C1340.77 67.5459 1340.45 67.9886 1340.23 68.5568C1340.02 69.125 1339.91 69.7879 1339.91 70.5455ZM1356.68 76V66.902H1354.06C1353.44 66.902 1352.96 67.0464 1352.61 67.3352C1352.27 67.6241 1352.09 68.0028 1352.09 68.4716C1352.09 68.9356 1352.25 69.3097 1352.57 69.5938C1352.89 69.8731 1353.34 70.0128 1353.92 70.0128H1357.29V71.7315H1353.92C1353.11 71.7315 1352.42 71.599 1351.83 71.3338C1351.25 71.0639 1350.8 70.6828 1350.48 70.1903C1350.17 69.6979 1350.01 69.1155 1350.01 68.4432C1350.01 67.7566 1350.17 67.1648 1350.5 66.6676C1350.82 66.1657 1351.29 65.7775 1351.9 65.5028C1352.51 65.2282 1353.23 65.0909 1354.06 65.0909H1358.67V76H1356.68ZM1349.52 76L1352.59 70.4886H1354.76L1351.69 76H1349.52ZM1367.62 73.3722L1371.14 65.0909H1372.98L1368.41 76H1366.83L1362.36 65.0909H1364.17L1367.62 73.3722ZM1363.58 65.0909V76H1361.5V65.0909H1363.58ZM1371.72 76V65.0909H1373.78V76H1371.72ZM1381.21 76.2202C1380.19 76.2202 1379.29 75.9858 1378.53 75.517C1377.77 75.0483 1377.18 74.3925 1376.76 73.5497C1376.34 72.7069 1376.12 71.7221 1376.12 70.5952C1376.12 69.4635 1376.34 68.474 1376.76 67.6264C1377.18 66.7789 1377.77 66.1207 1378.53 65.652C1379.29 65.1832 1380.19 64.9489 1381.21 64.9489C1382.23 64.9489 1383.13 65.1832 1383.89 65.652C1384.65 66.1207 1385.24 66.7789 1385.66 67.6264C1386.08 68.474 1386.3 69.4635 1386.3 70.5952C1386.3 71.7221 1386.08 72.7069 1385.66 73.5497C1385.24 74.3925 1384.65 75.0483 1383.89 75.517C1383.13 75.9858 1382.23 76.2202 1381.21 76.2202ZM1381.22 74.4375C1381.88 74.4375 1382.43 74.2623 1382.87 73.9119C1383.3 73.5616 1383.62 73.0952 1383.83 72.5128C1384.04 71.9304 1384.15 71.2888 1384.15 70.5881C1384.15 69.892 1384.04 69.2528 1383.83 68.6705C1383.62 68.0833 1383.3 67.6122 1382.87 67.2571C1382.43 66.902 1381.88 66.7244 1381.22 66.7244C1380.55 66.7244 1380 66.902 1379.56 67.2571C1379.12 67.6122 1378.8 68.0833 1378.58 68.6705C1378.37 69.2528 1378.27 69.892 1378.27 70.5881C1378.27 71.2888 1378.37 71.9304 1378.58 72.5128C1378.8 73.0952 1379.12 73.5616 1379.56 73.9119C1380 74.2623 1380.55 74.4375 1381.22 74.4375ZM1398.55 76.2202C1397.5 76.2202 1396.59 75.9811 1395.83 75.5028C1395.07 75.0199 1394.49 74.3546 1394.08 73.5071C1393.67 72.6596 1393.47 71.6889 1393.47 70.5952C1393.47 69.4872 1393.68 68.5095 1394.09 67.6619C1394.51 66.8097 1395.1 66.1444 1395.86 65.6662C1396.61 65.188 1397.51 64.9489 1398.53 64.9489C1399.36 64.9489 1400.1 65.1027 1400.75 65.4105C1401.4 65.7135 1401.92 66.1397 1402.32 66.6889C1402.72 67.2382 1402.96 67.8797 1403.04 68.6136H1400.97C1400.86 68.1023 1400.59 67.6619 1400.19 67.2926C1399.79 66.9233 1399.25 66.7386 1398.57 66.7386C1397.98 66.7386 1397.46 66.8949 1397.01 67.2074C1396.57 67.5152 1396.23 67.9555 1395.98 68.5284C1395.74 69.0966 1395.61 69.7689 1395.61 70.5455C1395.61 71.3409 1395.73 72.0275 1395.98 72.6051C1396.22 73.1828 1396.56 73.6302 1397 73.9474C1397.44 74.2647 1397.97 74.4233 1398.57 74.4233C1398.97 74.4233 1399.34 74.3499 1399.66 74.2031C1399.99 74.0516 1400.27 73.8362 1400.49 73.5568C1400.72 73.2775 1400.88 72.9413 1400.97 72.5483H1403.04C1402.96 73.2538 1402.73 73.8835 1402.35 74.4375C1401.96 74.9915 1401.45 75.4271 1400.81 75.7443C1400.17 76.0616 1399.42 76.2202 1398.55 76.2202ZM1410.01 76.2202C1408.93 76.2202 1408.01 75.9905 1407.23 75.5312C1406.46 75.0672 1405.86 74.4162 1405.44 73.5781C1405.02 72.7353 1404.82 71.7481 1404.82 70.6165C1404.82 69.4991 1405.02 68.5142 1405.44 67.6619C1405.86 66.8097 1406.45 66.1444 1407.2 65.6662C1407.96 65.188 1408.85 64.9489 1409.86 64.9489C1410.47 64.9489 1411.07 65.0507 1411.65 65.2543C1412.23 65.4579 1412.74 65.7775 1413.2 66.2131C1413.66 66.6487 1414.03 67.2145 1414.29 67.9105C1414.56 68.6018 1414.69 69.4422 1414.69 70.4318V71.1847H1406.02V69.5938H1412.61C1412.61 69.035 1412.49 68.5402 1412.27 68.1094C1412.04 67.6738 1411.72 67.3305 1411.31 67.0795C1410.9 66.8286 1410.42 66.7031 1409.87 66.7031C1409.28 66.7031 1408.76 66.8499 1408.31 67.1435C1407.87 67.4323 1407.53 67.8111 1407.29 68.2798C1407.05 68.7438 1406.93 69.2481 1406.93 69.7926V71.0355C1406.93 71.7647 1407.06 72.3849 1407.32 72.8963C1407.58 73.4077 1407.94 73.7983 1408.4 74.0682C1408.87 74.3333 1409.41 74.4659 1410.03 74.4659C1410.43 74.4659 1410.8 74.4091 1411.13 74.2955C1411.46 74.1771 1411.75 74.0019 1411.99 73.7699C1412.23 73.5379 1412.42 73.2514 1412.54 72.9105L1414.55 73.2727C1414.39 73.8646 1414.1 74.383 1413.69 74.8281C1413.28 75.2685 1412.76 75.6117 1412.13 75.858C1411.51 76.0994 1410.8 76.2202 1410.01 76.2202ZM1419.13 73.0241L1423.93 65.0909H1426.22V76H1424.14V68.0597L1419.35 76H1417.04V65.0909H1419.13V73.0241ZM1423.02 61.3977H1424.77C1424.77 62.1979 1424.49 62.849 1423.92 63.3509C1423.36 63.848 1422.59 64.0966 1421.63 64.0966C1420.68 64.0966 1419.92 63.848 1419.35 63.3509C1418.79 62.849 1418.51 62.1979 1418.51 61.3977H1420.25C1420.25 61.7528 1420.35 62.0677 1420.56 62.3423C1420.77 62.6122 1421.13 62.7472 1421.63 62.7472C1422.13 62.7472 1422.49 62.6122 1422.7 62.3423C1422.92 62.0724 1423.02 61.7576 1423.02 61.3977ZM1437.83 65.0909V76H1435.76V65.0909H1437.83ZM1436.93 70.1548V71.9872C1436.6 72.1198 1436.26 72.2382 1435.89 72.3423C1435.53 72.4418 1435.15 72.5199 1434.74 72.5767C1434.34 72.6335 1433.92 72.6619 1433.49 72.6619C1432.14 72.6619 1431.06 72.3329 1430.27 71.6747C1429.47 71.0118 1429.08 69.9986 1429.08 68.6349V65.0696H1431.14V68.6349C1431.14 69.151 1431.24 69.5701 1431.43 69.892C1431.62 70.214 1431.89 70.4508 1432.24 70.6023C1432.59 70.7538 1433 70.8295 1433.49 70.8295C1434.13 70.8295 1434.72 70.7704 1435.25 70.652C1435.8 70.5289 1436.36 70.3632 1436.93 70.1548ZM1443.83 76.2415C1443.14 76.2415 1442.52 76.1136 1441.96 75.858C1441.4 75.5975 1440.96 75.2211 1440.63 74.7287C1440.31 74.2363 1440.15 73.6326 1440.15 72.9176C1440.15 72.3021 1440.27 71.7955 1440.5 71.3977C1440.74 71 1441.06 70.6851 1441.46 70.4531C1441.86 70.2211 1442.31 70.0459 1442.81 69.9276C1443.31 69.8092 1443.81 69.7192 1444.33 69.6577C1444.98 69.5819 1445.51 69.5204 1445.92 69.473C1446.33 69.4209 1446.62 69.3381 1446.81 69.2244C1446.99 69.1108 1447.09 68.9261 1447.09 68.6705V68.6207C1447.09 68.0005 1446.91 67.5199 1446.56 67.179C1446.21 66.8381 1445.7 66.6676 1445.01 66.6676C1444.3 66.6676 1443.73 66.8262 1443.32 67.1435C1442.91 67.456 1442.63 67.804 1442.48 68.1875L1440.48 67.733C1440.72 67.0701 1441.06 66.535 1441.52 66.1278C1441.98 65.7159 1442.5 65.4176 1443.1 65.233C1443.7 65.0436 1444.33 64.9489 1444.98 64.9489C1445.42 64.9489 1445.88 65.0009 1446.37 65.1051C1446.86 65.2045 1447.32 65.3892 1447.75 65.6591C1448.18 65.929 1448.53 66.3149 1448.8 66.8168C1449.08 67.3139 1449.22 67.9602 1449.22 68.7557V76H1447.14V74.5085H1447.06C1446.92 74.7831 1446.71 75.053 1446.44 75.3182C1446.16 75.5833 1445.81 75.8035 1445.38 75.9787C1444.95 76.1539 1444.43 76.2415 1443.83 76.2415ZM1444.29 74.5369C1444.88 74.5369 1445.38 74.4209 1445.8 74.1889C1446.22 73.9569 1446.54 73.6539 1446.76 73.2798C1446.98 72.901 1447.09 72.4962 1447.09 72.0653V70.6591C1447.02 70.7348 1446.87 70.8059 1446.65 70.8722C1446.44 70.9337 1446.2 70.9882 1445.92 71.0355C1445.65 71.0781 1445.38 71.1184 1445.12 71.1562C1444.86 71.1894 1444.64 71.2178 1444.46 71.2415C1444.05 71.2936 1443.68 71.3812 1443.34 71.5043C1443 71.6274 1442.73 71.8049 1442.53 72.0369C1442.33 72.2642 1442.23 72.5672 1442.23 72.946C1442.23 73.4716 1442.42 73.8693 1442.81 74.1392C1443.2 74.4044 1443.69 74.5369 1444.29 74.5369ZM1456.64 76.2202C1455.58 76.2202 1454.67 75.9811 1453.91 75.5028C1453.16 75.0199 1452.57 74.3546 1452.17 73.5071C1451.76 72.6596 1451.55 71.6889 1451.55 70.5952C1451.55 69.4872 1451.76 68.5095 1452.18 67.6619C1452.6 66.8097 1453.18 66.1444 1453.94 65.6662C1454.7 65.188 1455.59 64.9489 1456.62 64.9489C1457.45 64.9489 1458.19 65.1027 1458.83 65.4105C1459.48 65.7135 1460.01 66.1397 1460.4 66.6889C1460.81 67.2382 1461.05 67.8797 1461.12 68.6136H1459.05C1458.94 68.1023 1458.68 67.6619 1458.27 67.2926C1457.87 66.9233 1457.33 66.7386 1456.65 66.7386C1456.06 66.7386 1455.54 66.8949 1455.1 67.2074C1454.66 67.5152 1454.32 67.9555 1454.07 68.5284C1453.82 69.0966 1453.7 69.7689 1453.7 70.5455C1453.7 71.3409 1453.82 72.0275 1454.06 72.6051C1454.3 73.1828 1454.64 73.6302 1455.08 73.9474C1455.53 74.2647 1456.05 74.4233 1456.65 74.4233C1457.06 74.4233 1457.42 74.3499 1457.75 74.2031C1458.08 74.0516 1458.36 73.8362 1458.58 73.5568C1458.81 73.2775 1458.96 72.9413 1459.05 72.5483H1461.12C1461.05 73.2538 1460.82 73.8835 1460.43 74.4375C1460.05 74.9915 1459.54 75.4271 1458.89 75.7443C1458.25 76.0616 1457.5 76.2202 1456.64 76.2202Z" fill="white"/>
</g>
<rect x="15.5" y="8.5" width="1499" height="116" rx="9.5" stroke="black" stroke-opacity="0.3"/>
</g>
<defs>
<filter id="filter0_d_103_2463" x="0" y="0" width="1530" height="147" filterUnits="userSpaceOnUse" color-interpolation-filters="sRGB">
<feFlood flood-opacity="0" result="BackgroundImageFix"/>
<feColorMatrix in="SourceAlpha" type="matrix" values="0 0 0 0 0 0 0 0 0 0 0 0 0 0 0 0 0 0 127 0" result="hardAlpha"/>
<feOffset dy="7"/>
<feGaussianBlur stdDeviation="7.5"/>
<feComposite in2="hardAlpha" operator="out"/>
<feColorMatrix type="matrix" values="0 0 0 0 0.156863 0 0 0 0 0.211765 0 0 0 0 0.227451 0 0 0 0.15 0"/>
<feBlend mode="normal" in2="BackgroundImageFix" result="effect1_dropShadow_103_2463"/>
<feBlend mode="normal" in="SourceGraphic" in2="effect1_dropShadow_103_2463" result="shape"/>
</filter>
<filter id="filter1_f_103_2463" x="-285" y="-393" width="1023" height="1023" filterUnits="userSpaceOnUse" color-interpolation-filters="sRGB">
<feFlood flood-opacity="0" result="BackgroundImageFix"/>
<feBlend mode="normal" in="SourceGraphic" in2="BackgroundImageFix" result="shape"/>
<feGaussianBlur stdDeviation="150" result="effect1_foregroundBlur_103_2463"/>
</filter>
<filter id="filter2_f_103_2463" x="518" y="-653" width="1223" height="1223" filterUnits="userSpaceOnUse" color-interpolation-filters="sRGB">
<feFlood flood-opacity="0" result="BackgroundImageFix"/>
<feBlend mode="normal" in="SourceGraphic" in2="BackgroundImageFix" result="shape"/>
<feGaussianBlur stdDeviation="200" result="effect1_foregroundBlur_103_2463"/>
</filter>
<clipPath id="clip0_103_2463">
<rect x="15" y="8" width="1500" height="117" rx="10" fill="white"/>
</clipPath>
</defs>
</svg>
