<svg width="218" height="278" viewBox="0 0 218 278" fill="none" xmlns="http://www.w3.org/2000/svg">
<path d="M109 0.75C80.2014 0.783975 52.5919 12.2393 32.2282 32.6031C11.8644 52.9668 0.40909 80.5763 0.375116 109.375C0.340623 132.909 8.02805 155.805 22.2581 174.55C22.2581 174.55 25.2206 178.451 25.7045 179.014L109 277.25L192.335 178.964C192.77 178.441 195.742 174.55 195.742 174.55L195.752 174.52C209.975 155.784 217.659 132.899 217.625 109.375C217.591 80.5763 206.136 52.9668 185.772 32.6031C165.408 12.2393 137.799 0.783975 109 0.75V0.75ZM109 148.875C101.188 148.875 93.5508 146.558 87.0551 142.218C80.5593 137.878 75.4965 131.709 72.5069 124.491C69.5172 117.273 68.735 109.331 70.2591 101.669C71.7832 94.0067 75.5452 86.9685 81.0694 81.4443C86.5936 75.9201 93.6318 72.1581 101.294 70.634C108.956 69.1099 116.898 69.8921 124.116 72.8818C131.334 75.8714 137.503 80.9342 141.843 87.43C146.183 93.9257 148.5 101.563 148.5 109.375C148.487 119.847 144.321 129.886 136.916 137.291C129.512 144.696 119.472 148.862 109 148.875V148.875Z" fill="black" fill-opacity="0.05"/>
</svg>
